<svg width="100" height="100" viewBox="0 0 800 800" fill="none" xmlns="http://www.w3.org/2000/svg">
<path fill-rule="evenodd" clip-rule="evenodd" d="M380 129h26l20 3 19 4 24 7 16 8 15 8 8 6 9 7 1 3 4 2 13 15 7 11 8 16 5 15 7 30 1 10v30l-2 15-10 44-4 10-5 22-1 8v30l4 16 4 9 9 15 12 12 9 4 5 4 12 4 12 5 4 5-3 7-7 8-10 4-5 1h-29l-18-4-11-6-10-9-5-8-2-1 3 19 5 16 9 20 11 15 6 9 10 9 11 10 8 11 1 8-4 6-10 6-8 1-20-6-10-5-8-6-13-10-7-8-7-7-11-17-13-25-5-19-3-14-3-10-1 1-3 26-4 33-5 27-9 31-13 27-8 12-11 12-10 5-12 3-10-1-8-4-2-3 1-8 5-16 6-26 6-25 3-14 3-30 1-21v-31l-2-1-2 6-8 19-3 7-6 16-11 20-7 10-6 8-11 12-4 6-8 7-10 9-17 10-5 3-13 5-9 2h-13l-8-6-3-4v-8l4-5 8-7 10-6 9-10 4-4 7-12 9-17 4-7 7-14 11-38 2-13-5 5-7 10-14 15-9 9-8 7-11 8-15 8-8 3-10 1h-10l-12-2-5-3-4-5-2-5v-10l4-7 14-9 8-4 9-8 4-2 8-11 8-10 6-9 6-10 4-17 1-8v-11l-5-23-7-17-12-29-4-11-3-15-3-32v-13l4-36 4-15 10-23 6-9 10-13 5-5 12-13 11-9 14-9 14-8 21-7 28-6z M452 244h15l10 4 6 7 4 9 1 7v10l-3 12-4 7-10 6-8 2h-7l-10-3-8-6-4-8-2-8v-14l2-9 6-9 6-5z M301 244h14l10 4 9 13 2 6v17l-3 9-7 9-10 5-11 1-13-4-6-5-4-9-2-7v-14l4-13 6-8z" fill="white"/>
</svg>
